<?xml version="1.0" encoding="UTF-8" standalone="no"?>
<svg
   xmlns:dc="http://purl.org/dc/elements/1.1/"
   xmlns:cc="http://creativecommons.org/ns#"
   xmlns:rdf="http://www.w3.org/1999/02/22-rdf-syntax-ns#"
   xmlns:svg="http://www.w3.org/2000/svg"
   xmlns="http://www.w3.org/2000/svg"
   xmlns:xlink="http://www.w3.org/1999/xlink"
   xmlns:sodipodi="http://sodipodi.sourceforge.net/DTD/sodipodi-0.dtd"
   xmlns:inkscape="http://www.inkscape.org/namespaces/inkscape"
   version="1.1"
   viewBox="0 0 600 800"
   id="svg8452"
   sodipodi:docname="cron_kindle-wetter_preprocess.svg"
   inkscape:version="1.0.2 (e86c870, 2021-01-15)">
  <sodipodi:namedview
     pagecolor="#ffffff"
     bordercolor="#666666"
     borderopacity="1"
     objecttolerance="10"
     gridtolerance="10"
     guidetolerance="10"
     inkscape:pageopacity="0"
     inkscape:pageshadow="2"
     inkscape:window-width="1920"
     inkscape:window-height="1043"
     id="namedview8454"
     showgrid="false"
     inkscape:document-rotation="0"
     inkscape:zoom="1.0325"
     inkscape:cx="420.81523"
     inkscape:cy="565.41982"
     inkscape:window-x="0"
     inkscape:window-y="0"
     inkscape:window-maximized="1"
     inkscape:current-layer="svg8452" />
  <metadata
     id="metadata7740">
    <rdf:RDF>
      <cc:Work
         rdf:about="">
        <dc:format>image/svg+xml</dc:format>
        <dc:type
           rdf:resource="http://purl.org/dc/dcmitype/StillImage" />
        <dc:title />
      </cc:Work>
    </rdf:RDF>
  </metadata>
  <defs
     id="defs7762">
    <rect
       x="-720.58111"
       y="867.79661"
       width="667.31235"
       height="668.28087"
       id="rect1351" />
    <rect
       x="236.31961"
       y="615.01211"
       width="125.90799"
       height="68.765133"
       id="rect1071" />
    <rect
       x="290.5569"
       y="604.35835"
       width="296.36804"
       height="173.36562"
       id="rect939" />
    <rect
       x="323.48668"
       y="615.98063"
       width="266.34383"
       height="203.38983"
       id="rect933" />
    <rect
       x="357.10868"
       y="175.92079"
       width="30.54912"
       height="40.029881"
       id="rect8458" />
    <path
       id="cloudy"
       d="M 49.890625 -0.22851562 C 33.64978 -0.22851562 20.4375 12.85729 20.4375 28.941406 C 20.4375 29.097191 20.438306 29.252663 20.441406 29.410156 C 9.4544043 30.090482 0.72460938 39.169411 0.72460938 50.230469 C 0.72460938 61.732845 10.163272 71.089844 21.765625 71.089844 L 79.066406 71.089844 C 93.855269 71.089844 105.88672 59.171969 105.88672 44.521484 C 105.88672 29.870577 93.855269 17.951172 79.066406 17.951172 C 78.443467 17.951172 77.819364 17.972945 77.197266 18.015625 C 75.20174 13.148352 71.862436 8.8203173 67.607422 5.640625 C 62.469311 1.8006676 56.343462 -0.22851563 49.890625 -0.22851562 z M 49.890625 6.1738281 C 60.035504 6.1738281 69.143806 12.855303 72.041016 22.423828 C 72.506428 23.960323 74.025042 24.913842 75.595703 24.644531 C 76.734314 24.451185 77.902453 24.351562 79.066406 24.351562 C 90.362144 24.351562 99.550781 33.400677 99.550781 44.521484 C 99.551206 55.642297 90.362146 64.6875 79.066406 64.6875 L 21.765625 64.6875 C 13.656393 64.6875 7.0605469 58.202747 7.0605469 50.230469 C 7.0605469 42.257766 13.656393 35.771484 21.765625 35.771484 C 22.265245 35.771484 22.821995 35.808664 23.517578 35.890625 C 24.494437 36.006283 25.470803 35.655026 26.15625 34.941406 C 26.842121 34.227791 27.159905 33.23226 27.017578 32.248047 C 26.854135 31.117019 26.771484 30.003901 26.771484 28.939453 C 26.771484 16.385862 37.142902 6.1738281 49.890625 6.1738281 z M 163.97656 21.169922 C 147.73571 21.169922 134.52148 34.253775 134.52148 50.337891 C 134.52148 50.493676 134.52239 50.651101 134.52539 50.808594 C 123.53839 51.48892 114.81055 60.567848 114.81055 71.628906 C 114.81055 72.239523 114.84242 72.842004 114.89453 73.439453 C 110.92511 72.662042 106.85264 72.263672 102.71484 72.263672 C 68.785143 72.263672 41.181641 99.314144 41.181641 132.56445 C 41.181641 132.8865 41.183253 133.20958 41.189453 133.53516 C 18.235863 134.94158 4.7369516e-15 153.70991 0 176.57617 C 0 200.35476 19.719828 219.69922 43.958984 219.69922 L 163.66797 219.69922 C 194.56425 219.69922 219.69922 195.06004 219.69922 164.77344 C 219.69922 134.48597 194.56425 109.8457 163.66797 109.8457 C 162.36655 109.8457 161.06333 109.89029 159.76367 109.97852 C 157.11697 103.59058 153.33469 97.655026 148.6543 92.488281 L 193.15039 92.488281 C 207.93926 92.488281 219.97266 80.568454 219.97266 65.917969 C 219.97266 51.267062 207.93926 39.349609 193.15039 39.349609 C 192.52745 39.349609 191.9053 39.371382 191.2832 39.414062 C 189.28768 34.54679 185.94838 30.218754 181.69336 27.039062 C 176.55525 23.199106 170.42939 21.169922 163.97656 21.169922 z M 163.97656 27.572266 C 174.12144 27.572266 183.22974 34.253741 186.12695 43.822266 C 186.59236 45.358761 188.10903 46.31228 189.67969 46.042969 C 190.8183 45.849623 191.98643 45.75 193.15039 45.75 C 204.44612 45.75 213.63672 54.797162 213.63672 65.917969 C 213.63714 77.038782 204.44613 86.085938 193.15039 86.085938 L 141.89453 86.085938 C 141.18465 85.509317 140.46716 84.943184 139.73047 84.398438 C 134.17875 80.292829 128.07068 77.196922 121.60547 75.15625 C 121.31538 74.025025 121.14453 72.84744 121.14453 71.628906 C 121.14453 63.656203 127.74233 57.169922 135.85156 57.169922 C 136.35118 57.169922 136.90794 57.207101 137.60352 57.289062 C 138.58038 57.404721 139.55675 57.053464 140.24219 56.339844 C 140.92806 55.626229 141.24584 54.630697 141.10352 53.646484 C 140.94007 52.515456 140.85742 51.402339 140.85742 50.337891 C 140.85742 37.7843 151.22883 27.572266 163.97656 27.572266 z M 102.71484 85.498047 C 123.9091 85.498047 142.93946 99.312967 148.99219 119.09375 C 149.96451 122.27011 153.13466 124.23838 156.41602 123.68164 C 158.79476 123.28194 161.23434 123.08008 163.66602 123.08008 C 187.26461 123.08008 206.46484 141.78366 206.46484 164.77344 C 206.46573 187.76323 187.26656 206.46484 163.66797 206.46484 L 43.958984 206.46484 C 27.017515 206.46484 13.234375 193.05707 13.234375 176.57617 C 13.234375 160.09439 27.017515 146.68555 43.958984 146.68555 C 45.002771 146.68555 46.164003 146.76416 47.617188 146.93359 C 49.658 147.1727 51.69885 146.44595 53.130859 144.9707 C 54.563751 143.49546 55.228984 141.43894 54.931641 139.4043 C 54.590182 137.06615 54.416016 134.76496 54.416016 132.56445 C 54.416016 106.61271 76.08283 85.498047 102.71484 85.498047 z" />
    <path
       id="fog"
       d="m 106.7054,8.247368 c -4.26119,0 -7.715823,3.453602 -7.715823,7.715822 v 24.473624 c 0,4.26222 3.454633,7.715822 7.715823,7.715822 4.26119,0 7.71582,-3.453602 7.71582,-7.715822 V 15.96319 c 0,-4.26222 -3.4536,-7.715822 -7.71582,-7.715822 z M 23.631714,42.66114 c -1.974607,0 -3.947189,0.754367 -5.453317,2.260495 -3.013286,3.013286 -3.013286,7.898397 0,10.910654 l 17.29831,17.30233 c 1.506129,1.507157 3.481105,2.260494 5.455327,2.260494 1.974222,0 3.951209,-0.754366 5.457337,-2.260494 3.013286,-3.013286 3.013286,-7.898398 0,-10.910655 L 29.089052,44.921635 C 27.582409,43.414478 25.606322,42.66114 23.631714,42.66114 Z m 166.169476,0.002 c -1.97461,-2.57e-4 -3.9477,0.752872 -5.45332,2.258486 l -17.30836,17.302329 c -3.01431,3.013286 -3.01628,7.898398 -0.004,10.910655 1.50716,1.507157 3.48312,2.260494 5.45734,2.260494 1.97422,0 3.9492,-0.753385 5.45532,-2.258485 l 17.30836,-17.30032 c 3.01432,-3.013285 3.01428,-7.898398 0.002,-10.910654 -1.50717,-1.507672 -3.48274,-2.262248 -5.45734,-2.262505 z m -83.08775,24.704696 c -33.835426,0 -61.797437,25.561908 -65.632715,58.387074 H 21.70075 c -4.261192,0 -7.715822,3.4536 -7.715822,7.71582 0,4.26119 3.45463,7.71582 7.715822,7.71582 h 185.10538 c 4.26222,0 7.71582,-3.4536 7.71582,-7.71582 0,-4.26222 -3.4536,-7.71582 -7.71582,-7.71582 H 172.35218 C 168.51587,92.929753 140.55195,67.367845 106.71344,67.367845 Z m 0,15.431645 c 25.31819,0 46.35727,18.664989 50.08452,42.955429 H 56.632929 C 60.359156,101.46345 81.398339,82.79949 106.71344,82.79949 Z M 7.7158221,161.11107 C 3.4546308,161.11107 0,164.56467 0,168.82689 c 0,4.26222 3.4546308,7.71582 7.7158221,7.71582 H 182.24812 c 4.26119,0 7.71582,-3.4536 7.71582,-7.71582 0,-4.26222 -3.4536,-7.71582 -7.71582,-7.71582 z m 30.0354449,35.35816 c -4.261192,0 -7.715822,3.4536 -7.715822,7.71582 0,4.26222 3.454631,7.71582 7.715822,7.71582 H 211.98418 c 4.26222,0 7.71582,-3.4536 7.71582,-7.71582 0,-4.26222 -3.4536,-7.71582 -7.71582,-7.71582 z" />
    <path
       id="partly-cloudy-night"
       d="M 66.185547 -0.080078125 C 57.49036 -0.080078125 48.98752 1.6171956 40.910156 4.9628906 C 24.568117 11.732197 11.841163 24.458741 5.0742188 40.800781 C -1.691941 57.140461 -1.6914062 75.138056 5.0761719 91.478516 C 12.031288 108.26943 25.264976 121.03221 41.412109 127.54688 C 41.272066 129.20338 41.181641 130.87312 41.181641 132.56445 C 41.181641 132.8865 41.183253 133.20958 41.189453 133.53516 C 18.235863 134.94158 4.7369516e-15 153.70991 0 176.57617 C 0 200.35476 19.719828 219.69922 43.958984 219.69922 L 163.66797 219.69922 C 194.56425 219.69922 219.69922 195.06004 219.69922 164.77344 C 219.69922 134.48597 194.56425 109.8457 163.66797 109.8457 C 162.36655 109.8457 161.06333 109.89029 159.76367 109.97852 C 155.5947 99.91651 148.61987 90.971738 139.73047 84.398438 C 128.99614 76.460184 116.19584 72.263672 102.71484 72.263672 C 94.43919 72.263672 86.544302 73.882922 79.330078 76.798828 C 76.239751 72.908759 73.652452 68.577744 71.707031 63.880859 C 64.301799 46.003309 67.024262 25.332732 78.8125 9.9375 C 80.093802 8.265046 80.386002 6.0361867 79.580078 4.0898438 C 78.774155 2.1435008 76.992312 0.77391775 74.904297 0.49609375 C 72.019805 0.11438075 69.08578 -0.080078125 66.185547 -0.080078125 z M 63.628906 11.787109 C 54.372565 29.118454 53.167711 49.974688 60.798828 68.398438 C 62.874276 73.409351 65.555131 78.071459 68.71875 82.333984 C 56.787591 90.114306 47.784895 101.86333 43.666016 115.64258 C 31.391606 110.05689 21.382575 99.993196 15.984375 86.960938 C 10.422386 73.533298 10.4206 58.744419 15.980469 45.318359 C 21.541674 31.890719 31.999306 21.433094 45.427734 15.871094 C 51.270695 13.450959 57.382194 12.079887 63.628906 11.787109 z M 102.71484 85.498047 C 123.9091 85.498047 142.93946 99.312964 148.99219 119.09375 C 149.96451 122.27011 153.13466 124.23838 156.41602 123.68164 C 158.79476 123.28194 161.23434 123.08008 163.66602 123.08008 C 187.26461 123.08008 206.46484 141.78366 206.46484 164.77344 C 206.46573 187.76323 187.26656 206.46484 163.66797 206.46484 L 43.958984 206.46484 C 27.017515 206.46484 13.234375 193.05707 13.234375 176.57617 C 13.234375 160.09439 27.017515 146.68555 43.958984 146.68555 C 45.002771 146.68555 46.164003 146.76416 47.617188 146.93359 C 49.658 147.1727 51.69885 146.44595 53.130859 144.9707 C 54.563751 143.49546 55.228984 141.43894 54.931641 139.4043 C 54.590182 137.06615 54.416016 134.76496 54.416016 132.56445 C 54.416016 106.6127 76.08283 85.498047 102.71484 85.498047 z" />
    <path
       id="partly-cloudy-day"
       d="M 69.992188 0.70117188 C 67.353795 0.70117188 65.214844 2.8400506 65.214844 5.4785156 L 65.214844 19.060547 C 65.214844 21.69901 67.353791 23.837891 69.992188 23.837891 C 72.63122 23.837891 74.769531 21.69901 74.769531 19.060547 L 74.769531 5.4785156 C 74.769531 2.8400506 72.63122 0.7011717 69.992188 0.70117188 z M 116.11719 19.800781 C 114.89457 19.800618 113.67146 20.267967 112.73828 21.201172 L 103.13281 30.804688 C 101.26709 32.669837 101.26638 35.694767 103.13086 37.560547 C 104.06341 38.494394 105.28479 38.960938 106.50781 38.960938 C 107.73018 38.960938 108.95549 38.495075 109.88867 37.5625 L 119.49414 27.958984 C 121.35986 26.093204 121.36057 23.067594 119.49609 21.201172 C 118.56322 20.267967 117.3398 19.800945 116.11719 19.800781 z M 23.882812 19.802734 C 22.660204 19.802734 21.43841 20.268282 20.505859 21.201172 C 18.640137 23.066952 18.640137 26.093845 20.505859 27.958984 L 30.109375 37.5625 C 31.041915 38.495063 32.263953 38.960937 33.486328 38.960938 C 34.708703 38.960938 35.932694 38.495063 36.865234 37.5625 C 38.730968 35.69672 38.730968 32.670467 36.865234 30.804688 L 27.261719 21.201172 C 26.328853 20.268249 25.105432 19.802734 23.882812 19.802734 z M 69.998047 33.513672 C 49.495397 33.513672 32.814453 50.196702 32.814453 70.701172 C 32.814453 83.525942 39.356049 94.830442 49.263672 101.51367 C 43.676996 110.58966 40.457031 121.21418 40.457031 132.56445 C 40.457031 132.8865 40.458644 133.20958 40.464844 133.53516 C 17.511254 134.94158 -0.72460938 153.70991 -0.72460938 176.57617 C -0.72460938 200.35476 18.995219 219.69922 43.234375 219.69922 L 162.94141 219.69922 C 193.83769 219.69922 218.97461 195.06004 218.97461 164.77344 C 218.97461 134.48597 193.83769 109.8457 162.94141 109.8457 C 161.63999 109.8457 160.33677 109.89029 159.03711 109.97852 C 154.86814 99.916513 147.89526 90.971738 139.00586 84.398438 C 133.7421 80.505784 127.97863 77.517811 121.88477 75.478516 L 135.22266 75.478516 C 137.86169 75.478516 140 73.339636 140 70.701172 C 140 68.063339 137.86169 65.923828 135.22266 65.923828 L 121.63281 65.923828 C 118.99378 65.923828 116.85547 68.062709 116.85547 70.701172 C 116.85547 72.280775 117.63106 73.669343 118.8125 74.539062 C 115.02212 73.487458 111.11871 72.790922 107.13672 72.470703 C 107.1651 71.883992 107.18359 71.294977 107.18359 70.701172 C 107.18359 50.196702 90.501981 33.513672 69.998047 33.513672 z M 69.998047 43.070312 C 85.234107 43.070312 97.628906 55.465357 97.628906 70.701172 C 97.628906 71.285308 97.603023 71.86281 97.566406 72.4375 C 80.4902 73.633158 65.323109 81.676976 54.917969 93.787109 C 47.376891 88.855114 42.369141 80.366698 42.369141 70.701172 C 42.369141 55.465357 54.763912 43.070317 69.998047 43.070312 z M 4.7773438 65.923828 C 2.1389504 65.923828 -5.9211895e-16 68.062709 0 70.701172 C 0 73.339636 2.1389504 75.478516 4.7773438 75.478516 L 18.361328 75.478516 C 20.999721 75.478516 23.138672 73.339636 23.138672 70.701172 C 23.138672 68.062709 20.999721 65.923828 18.361328 65.923828 L 4.7773438 65.923828 z M 101.99023 85.498047 C 123.18449 85.498047 142.21485 99.312967 148.26758 119.09375 C 149.2399 122.27011 152.41005 124.23838 155.69141 123.68164 C 158.07015 123.28194 160.50973 123.08008 162.94141 123.08008 C 186.54 123.08008 205.74023 141.78366 205.74023 164.77344 C 205.74112 187.76323 186.54 206.46484 162.94141 206.46484 L 43.234375 206.46484 C 26.292906 206.46484 12.509766 193.05707 12.509766 176.57617 C 12.509766 160.09439 26.292906 146.68555 43.234375 146.68555 C 44.278162 146.68555 45.439394 146.76416 46.892578 146.93359 C 48.93339 147.1727 50.972288 146.44595 52.404297 144.9707 C 53.837189 143.49546 54.502421 141.43894 54.205078 139.4043 C 53.863619 137.06615 53.691406 134.76496 53.691406 132.56445 C 53.691406 106.61271 75.358216 85.498047 101.99023 85.498047 z M 33.488281 102.43555 C 32.265673 102.43532 31.042242 102.90173 30.109375 103.83398 L 20.501953 113.4375 C 18.63559 115.30263 18.635523 118.32757 20.5 120.19336 C 21.433182 121.12657 22.655889 121.59375 23.878906 121.59375 C 25.101281 121.59375 26.322678 121.12724 27.255859 120.19531 L 36.865234 110.5918 C 38.731597 108.72665 38.731671 105.70172 36.867188 103.83594 C 35.934005 102.90274 34.710884 102.4358 33.488281 102.43555 z" />
    <path
       id="rain"
       d="m 103.10979,-0.00116342 c -33.233894,0 -60.271554,26.50199542 -60.271554,59.07751142 0,0.114745 8.96e-4,0.22877 0.0018,0.343516 -22.291679,1.676038 -39.9103855,20.011272 -39.9103855,42.307656 0,23.39587 19.3991145,42.43074 43.2426805,42.43074 H 162.17811 c 30.29377,0 54.94062,-24.16654 54.94062,-53.869663 9.4e-4,-29.704053 -24.64685,-53.869651 -54.94062,-53.869651 -1.12206,0 -2.24603,0.03332 -3.36903,0.101035 -9.21351,-21.766859 -31.31962,-36.52114442 -55.69929,-36.52114442 z m 0,14.10806242 c 20.25918,0 38.44761,13.202149 44.23097,32.103189 1.03648,3.384995 4.42063,5.480674 7.91191,4.891898 2.2761,-0.381859 4.60607,-0.574977 6.92544,-0.574977 22.51459,0 40.83256,17.837661 40.83256,39.761588 9.4e-4,21.924873 -18.31797,39.761593 -40.83256,39.761593 H 46.172368 c -16.06438,0 -29.132781,-12.70598 -29.132781,-28.32267 0,-15.617623 13.068401,-28.324509 29.132781,-28.324509 0.991326,0 2.094107,0.07524 3.468232,0.235135 2.177344,0.257707 4.349986,-0.517913 5.878359,-2.090491 1.528373,-1.571639 2.23751,-3.76365 1.921489,-5.93347 -0.326367,-2.237538 -0.492313,-4.437617 -0.492313,-6.537837 -9.41e-4,-24.79539 20.706947,-44.969449 46.161655,-44.969449 z M 95.748983,152.79944 c -1.805247,2.4e-4 -3.610006,0.68919 -4.987423,2.06661 l -20.20686,20.2087 c -2.754835,2.75483 -2.753894,7.22184 0,9.97667 1.377887,1.37695 3.184366,2.06478 4.989258,2.06478 1.806772,-9.4e-4 3.61231,-0.68783 4.989257,-2.06478 l 20.206865,-20.2087 c 2.75483,-2.75483 2.753,-7.22184 -0.002,-9.97667 -1.377894,-1.37742 -3.184018,-2.06684 -4.989257,-2.06661 z m 43.112257,0 c -1.80525,2.4e-4 -3.61001,0.68919 -4.98743,2.06661 l -20.20685,20.2087 c -2.75484,2.75483 -2.7539,7.22184 0,9.97667 1.37788,1.37695 3.18252,2.06478 4.98741,2.06478 1.80583,-9.4e-4 3.61231,-0.68783 4.98926,-2.06478 l 20.20687,-20.2087 c 2.75483,-2.75483 2.75389,-7.22184 0,-9.97667 -1.37789,-1.37742 -3.18402,-2.06684 -4.98926,-2.06661 z m 43.11225,0 c -1.80525,-1.2e-4 -3.61001,0.68919 -4.98743,2.06661 l -20.20869,20.2087 c -2.75483,2.75483 -2.75483,7.22184 0,9.97667 1.37695,1.37695 3.18253,2.06478 4.98742,2.06478 1.80489,0 3.61048,-0.68689 4.98743,-2.06478 l 20.20869,-20.2087 c 2.75483,-2.75483 2.75483,-7.22278 0,-9.97667 -1.37695,-1.37789 -3.18218,-2.06649 -4.98742,-2.06661 z m -129.33309,0.002 c -1.805244,0 -3.610473,0.68735 -4.98742,2.06477 l -20.208697,20.2087 c -2.754834,2.75483 -2.754834,7.22184 0,9.97667 1.376947,1.37695 3.184365,2.06662 4.989257,2.06662 1.804891,-0.002 3.609534,-0.68967 4.98742,-2.06662 l 20.208698,-20.2087 c 2.754834,-2.75483 2.754834,-7.22278 0,-9.97667 -1.377417,-1.37742 -3.184014,-2.06477 -4.989258,-2.06477 z m 2.961224,32.58081 c -1.805244,1.1e-4 -3.610004,0.68919 -4.987421,2.0666 l -20.20686,20.2087 c -2.754834,2.75484 -2.753894,7.22184 0,9.97668 1.377887,1.37695 3.182529,2.06477 4.987421,2.06477 1.805832,0 3.611369,-0.68872 4.989257,-2.06661 L 60.589044,197.4237 c 2.754834,-2.75484 2.754834,-7.22001 0,-9.97485 -1.376947,-1.37694 -3.182176,-2.06672 -4.98742,-2.0666 z m 43.237165,0 c -1.805361,1.1e-4 -3.609999,0.68919 -4.987417,2.0666 l -20.20686,20.2087 c -2.754834,2.75484 -2.754834,7.22184 0,9.97668 1.377888,1.37695 3.184367,2.06477 4.989258,2.06477 1.804891,0 3.609533,-0.68872 4.98742,-2.06661 l 20.20686,-20.20869 c 2.75483,-2.75484 2.75389,-7.22001 0,-9.97485 -1.37836,-1.37694 -3.1839,-2.06672 -4.989261,-2.0666 z m 43.237181,0 c -1.80513,1.1e-4 -3.61001,0.68919 -4.98743,2.0666 l -20.20686,20.2087 c -2.75483,2.75484 -2.75389,7.22184 0,9.97668 1.37789,1.37695 3.18253,2.06477 4.98742,2.06477 1.80489,0 3.61137,-0.68872 4.98926,-2.06661 l 20.20686,-20.20869 c 2.75483,-2.75484 2.753,-7.22001 -0.002,-9.97485 -1.37742,-1.37694 -3.18229,-2.06672 -4.98741,-2.0666 z" />
    <path
       id="sleet"
       d="m 102.75767,0.69394907 c -34.088975,0 -61.822298,27.18387593 -61.822298,60.59753993 0,0.116733 -9.65e-4,0.234657 0,0.352355 C 18.071106,63.363005 0,82.169994 0,105.04004 c 0,23.9988 19.897278,43.52245 44.355288,43.52245 H 163.3458 c 31.07321,0 56.3542,-24.78832 56.3542,-55.255676 0,-30.467359 -25.28003,-55.255688 -56.3542,-55.255688 -1.15093,0 -2.30383,0.03417 -3.45572,0.103634 C 150.43952,15.827853 127.76462,0.69394907 102.75767,0.69394907 Z m 0,14.46916993 c 20.78044,0 39.43782,13.541831 45.36903,32.929185 1.06314,3.473053 4.53725,5.623618 8.11546,5.017763 2.33466,-0.391683 4.7246,-0.587886 7.10364,-0.587886 23.09387,0 41.88315,18.294728 41.88315,40.782743 0,22.489946 -18.78831,40.786516 -41.88315,40.786516 H 44.355288 c -16.478671,0 -29.884234,-13.03194 -29.884234,-29.0514 0,-16.019449 13.405563,-29.053271 29.884234,-29.053271 1.016834,0 2.147988,0.07718 3.557468,0.241185 2.235296,0.262408 4.460989,-0.532204 6.027722,-2.14428 1.567697,-1.612075 2.295079,-3.860484 1.970927,-6.086133 -0.334763,-2.295109 -0.504979,-4.551794 -0.504979,-6.706052 0,-25.434325 21.241609,-46.12837 47.351244,-46.12837 z M 43.729717,170.92102 a 10.128773,10.128773 0 0 0 -10.129738,10.12786 10.128773,10.128773 0 0 0 10.129738,10.12974 10.128773,10.128773 0 0 0 10.127854,-10.12974 10.128773,10.128773 0 0 0 -10.127854,-10.12786 z m 44.195128,0 a 10.128773,10.128773 0 0 0 -10.127854,10.12786 10.128773,10.128773 0 0 0 10.127854,10.12974 10.128773,10.128773 0 0 0 10.129736,-10.12974 10.128773,10.128773 0 0 0 -10.129736,-10.12786 z m 44.504145,0 a 10.128773,10.128773 0 0 0 -10.12786,10.12786 10.128773,10.128773 0 0 0 10.12786,10.12974 10.128773,10.128773 0 0 0 10.12974,-10.12974 10.128773,10.128773 0 0 0 -10.12974,-10.12786 z m 44.19701,0 A 10.128773,10.128773 0 0 0 166.49626,181.04888 10.128773,10.128773 0 0 0 176.626,191.17862 10.128773,10.128773 0 0 0 186.75386,181.04888 10.128773,10.128773 0 0 0 176.626,170.92102 Z M 65.918667,198.69867 a 10.127809,10.127809 0 0 0 -10.127854,10.12785 10.127809,10.127809 0 0 0 10.127854,10.12786 10.127809,10.127809 0 0 0 10.127854,-10.12786 10.127809,10.127809 0 0 0 -10.127854,-10.12785 z m 44.195123,0 a 10.127809,10.127809 0 0 0 -10.127854,10.12785 10.127809,10.127809 0 0 0 10.127854,10.12786 10.127809,10.127809 0 0 0 10.12786,-10.12786 10.127809,10.127809 0 0 0 -10.12786,-10.12785 z m 44.50415,0 a 10.127809,10.127809 0 0 0 -10.12786,10.12785 10.127809,10.127809 0 0 0 10.12786,10.12786 10.127809,10.127809 0 0 0 10.12786,-10.12786 10.127809,10.127809 0 0 0 -10.12786,-10.12785 z" />
    <path
       id="snow"
       d="m 102.75767,14.075174 c -34.088975,0 -61.822298,27.183875 -61.822298,60.59754 0,0.116733 -9.65e-4,0.234658 0,0.352355 C 18.070142,76.744231 0,95.551224 0,118.42127 c 0,23.99879 19.897278,43.52056 44.355288,43.52056 H 163.3458 c 31.07417,0 56.3542,-24.78644 56.3542,-55.2538 -9.6e-4,-30.468315 -25.28003,-55.257563 -56.3542,-55.257563 -1.15093,0 -2.30576,0.03606 -3.45572,0.105518 -9.45153,-22.326907 -32.12546,-37.460811 -57.13241,-37.460811 z m 0.002,14.46917 c 20.78044,0 39.43686,13.541832 45.36903,32.929186 1.06314,3.473052 4.53826,5.619758 8.11358,5.017762 2.33466,-0.391683 4.72556,-0.589771 7.10364,-0.589771 23.09387,0 41.88315,18.296614 41.88315,40.784629 -9.7e-4,22.48898 -18.78831,40.78463 -41.88315,40.78463 H 44.355288 c -16.477706,0 -29.884234,-13.03102 -29.884234,-29.04951 0,-16.01946 13.405563,-29.053276 29.884234,-29.053276 1.016834,0 2.147988,0.07718 3.557468,0.241184 2.227578,0.261444 4.460989,-0.531238 6.027722,-2.144278 1.567697,-1.612075 2.295079,-3.86237 1.970927,-6.088018 -0.335728,-2.295109 -0.503094,-4.551795 -0.503094,-6.706052 0,-25.434325 21.242572,-46.126486 47.351239,-46.126486 z M 43.729717,184.30225 A 10.128773,10.128773 0 0 0 33.599979,194.4301 10.128773,10.128773 0 0 0 43.729717,204.55984 10.128773,10.128773 0 0 0 53.857571,194.4301 10.128773,10.128773 0 0 0 43.729717,184.30225 Z m 44.195128,0 A 10.128773,10.128773 0 0 0 77.796991,194.4301 10.128773,10.128773 0 0 0 87.924845,204.55984 10.128773,10.128773 0 0 0 98.054581,194.4301 10.128773,10.128773 0 0 0 87.924845,184.30225 Z m 44.504145,0 a 10.128773,10.128773 0 0 0 -10.12786,10.12785 10.128773,10.128773 0 0 0 10.12786,10.12974 10.128773,10.128773 0 0 0 10.12974,-10.12974 10.128773,10.128773 0 0 0 -10.12974,-10.12785 z m 44.19701,0 A 10.128773,10.128773 0 0 0 166.49626,194.4301 10.128773,10.128773 0 0 0 176.626,204.55984 10.128773,10.128773 0 0 0 186.75386,194.4301 10.128773,10.128773 0 0 0 176.626,184.30225 Z" />
    <path
       id="clear-day"
       d="M 109.88086 0.00390625 C 105.73886 0.00390625 102.38086 3.3619063 102.38086 7.5039062 L 102.38086 28.828125 C 102.38086 32.970125 105.73886 36.328125 109.88086 36.328125 C 114.02386 36.328125 117.38086 32.970125 117.38086 28.828125 L 117.38086 7.5039062 C 117.38086 3.3619062 114.02386 0.00390625 109.88086 0.00390625 z M 182.29102 29.990234 C 180.37164 29.989984 178.45328 30.7225 176.98828 32.1875 L 161.90625 47.263672 C 158.97725 50.191672 158.9763 54.940141 161.9043 57.869141 C 163.3683 59.335141 165.28703 60.066406 167.20703 60.066406 C 169.12603 60.066406 171.04672 59.335094 172.51172 57.871094 L 187.59375 42.794922 C 190.52275 39.865922 190.5237 35.1175 187.5957 32.1875 C 186.1312 30.7225 184.21039 29.990484 182.29102 29.990234 z M 37.494141 29.992188 C 35.574766 29.992188 33.655406 30.723 32.191406 32.1875 C 29.262406 35.1165 29.262406 39.866922 32.191406 42.794922 L 47.267578 57.871094 C 48.731578 59.335094 50.651312 60.066406 52.570312 60.066406 C 54.489312 60.066406 56.409047 59.335094 57.873047 57.871094 C 60.802047 54.942094 60.802047 50.192672 57.873047 47.263672 L 42.796875 32.1875 C 41.332375 30.723 39.413516 29.992188 37.494141 29.992188 z M 109.88867 51.517578 C 77.701672 51.517578 51.515625 77.705531 51.515625 109.89453 C 51.515625 142.08253 77.701672 168.26953 109.88867 168.26953 C 142.07867 168.26953 168.26758 142.08253 168.26758 109.89453 C 168.26758 77.705531 142.07767 51.517578 109.88867 51.517578 z M 109.88867 66.517578 C 133.80767 66.517578 153.26758 85.976531 153.26758 109.89453 C 153.26758 133.81153 133.80767 153.26953 109.88867 153.26953 C 85.972672 153.26953 66.515625 133.81153 66.515625 109.89453 C 66.515625 85.976531 85.972672 66.517578 109.88867 66.517578 z M 7.5 102.39453 C 3.358 102.39453 0 105.75253 0 109.89453 C 0 114.03653 3.358 117.39453 7.5 117.39453 L 28.824219 117.39453 C 32.966219 117.39453 36.324219 114.03653 36.324219 109.89453 C 36.324219 105.75253 32.966219 102.39453 28.824219 102.39453 L 7.5 102.39453 z M 190.95117 102.39453 C 186.80817 102.39453 183.45117 105.75253 183.45117 109.89453 C 183.45117 114.03653 186.80817 117.39453 190.95117 117.39453 L 212.28516 117.39453 C 216.42816 117.39453 219.78516 114.03653 219.78516 109.89453 C 219.78516 105.75353 216.42816 102.39453 212.28516 102.39453 L 190.95117 102.39453 z M 167.2168 159.71289 C 165.2973 159.71264 163.37661 160.44566 161.91211 161.91016 C 158.98211 164.83916 158.98311 169.58763 161.91211 172.51562 L 176.98633 187.5918 C 178.45133 189.0568 180.36906 189.78906 182.28906 189.78906 C 184.20806 189.78906 186.12975 189.05775 187.59375 187.59375 C 190.52375 184.66475 190.52275 179.91433 187.59375 176.98633 L 172.51953 161.91016 C 171.05503 160.44566 169.1363 159.71314 167.2168 159.71289 z M 52.572266 159.71484 C 50.652891 159.71447 48.734031 160.4447 47.269531 161.9082 L 32.185547 176.98438 C 29.255547 179.91237 29.253641 184.6628 32.181641 187.5918 C 33.646641 189.0568 35.566328 189.78906 37.486328 189.78906 C 39.405328 189.78906 41.324063 189.05675 42.789062 187.59375 L 57.873047 172.51758 C 60.803047 169.58958 60.804953 164.84111 57.876953 161.91211 C 56.411953 160.44711 54.491641 159.71522 52.572266 159.71484 z M 109.88086 183.46094 C 105.73886 183.46094 102.38086 186.81894 102.38086 190.96094 L 102.38086 212.2832 C 102.38086 216.4252 105.73886 219.7832 109.88086 219.7832 C 114.02386 219.7832 117.38086 216.4252 117.38086 212.2832 L 117.38086 190.96094 C 117.38086 186.81794 114.02286 183.46094 109.88086 183.46094 z" />
    <path
       id="clear-night"
       d="m 208.21444,166.98323 c -1.33813,-3.22848 -4.29377,-5.49873 -7.75724,-5.95957 -31.88404,-4.2311 -59.32157,-25.27956 -71.60364,-54.93251 -12.28338,-29.654261 -7.76768,-63.940407 11.78598,-89.477142 2.12535,-2.774171 2.60968,-6.471326 1.27286,-9.6998083 -1.33682,-3.228483 -4.29376,-5.498734 -7.75724,-5.95957299 -4.78463,-0.633163 -9.64889,-0.95561999613 -14.45963,-0.95561999613 -14.42308,0 -28.528923,2.81333598613 -41.927191,8.36298398613 C 50.661096,19.590531 29.54998,40.701647 18.325356,67.80889 c -11.2233172,27.103326 -11.2207062,56.95602 0.0052,84.06065 17.068007,41.20526 56.912939,67.82947 101.509864,67.82947 0.001,0 0.001,0 0.001,0 14.42699,0 28.55372,-2.82117 41.98985,-8.38648 17.81214,-7.37865 33.41016,-19.35393 45.10868,-34.6321 2.12534,-2.77287 2.61098,-6.46872 1.27416,-9.6972 z m -53.87636,26.23909 c -11.04839,4.57575 -22.65421,6.89692 -34.49633,6.89561 -36.64909,0 -69.393449,-21.88005 -83.419659,-55.74191 -9.225914,-22.27301 -9.22722,-46.804516 -0.0052,-69.074909 C 45.6415,53.028106 62.987577,35.680724 85.261887,26.454809 94.953862,22.44042 105.09101,20.167558 115.4527,19.681915 c -15.35389,28.748246 -17.3513,63.343794 -4.69324,93.904065 12.65544,30.55505 38.52377,53.60221 69.70284,63.07486 -7.65671,6.95175 -16.4962,12.5732 -26.1242,16.56148 z" />
    <path
       id="wind"
       d="m 182.28553,17.648151 c -12.49655,0 -22.66219,10.165636 -22.66219,22.662187 0,10.691117 8.69754,19.389581 19.38769,19.389581 3.47907,0 6.29915,-2.820083 6.29915,-6.299153 0,-3.479071 -2.82008,-6.299153 -6.29915,-6.299153 -3.74364,0 -6.78938,-3.046671 -6.78938,-6.791275 0,-5.550038 4.51481,-10.063881 10.06388,-10.063881 7.80611,0 14.15606,6.350001 14.15606,14.154167 0,10.626187 -8.64415,19.270335 -19.27034,19.270335 h -50.79828 c -3.47907,0 -6.29915,2.820082 -6.29915,6.299153 0,3.479071 2.82105,6.299153 6.29915,6.299153 h 50.79828 c 17.5727,0 31.86864,-14.295942 31.86864,-31.868641 0,-14.751647 -12.00271,-26.752473 -26.75436,-26.752473 z M 81.817064,70.403558 c -16.038613,0 -29.086263,13.049543 -29.086263,29.08815 0,13.631372 11.090159,24.721532 24.721526,24.721532 4.014014,0 7.268253,-3.25327 7.268253,-7.26825 0,-4.01498 -3.254239,-7.26825 -7.268253,-7.26825 -5.615937,0 -10.185019,-4.56909 -10.185019,-10.185032 0,-8.022208 6.526573,-14.551643 14.549756,-14.551643 11.030302,0 20.004736,8.975403 20.004736,20.004725 0,14.79139 -12.033021,26.8244 -26.824401,26.8244 H 7.2682535 C 3.2542394,131.76919 0,135.02247 0,139.03745 c 0,4.01498 3.2542394,7.26825 7.2682535,7.26825 H 74.997399 c 22.806808,0 41.360901,-18.5541 41.360901,-41.36091 0,-19.044756 -15.49454,-34.541232 -34.541236,-34.541232 z M 168.79572,88.17103 c -23.25744,0 -42.17858,18.92022 -42.17858,42.1767 0,19.4072 15.78898,35.19614 35.19424,35.19614 4.01402,0 7.26826,-3.25328 7.26826,-7.26826 0,-4.01499 -3.25424,-7.26825 -7.26826,-7.26825 -11.3908,0 -20.65773,-9.26786 -20.65773,-20.65963 0,-15.24105 12.40006,-27.64019 27.64207,-27.64019 20.0536,0 36.36777,16.31421 36.36777,36.36587 0,26.06977 -21.20892,47.27961 -47.27772,47.27961 H 7.2682535 C 3.2542394,186.35302 0,189.60629 0,193.62128 c 0,4.01498 3.2542394,7.26825 7.2682535,7.26825 H 157.88577 c 34.08423,0 61.81423,-27.73092 61.81423,-61.81612 0,-28.06709 -22.83525,-50.90238 -50.90428,-50.90238 z" />
    <path
       id="sunset"
       d="M71.998,58h-4c-1.104,0-1.999-0.896-1.999-2s0.895-2,1.999-2h4 c1.104,0,1.999,0.896,1.999,2S73.103,58,71.998,58z M64.142,44.688c-0.781,0.781-2.048,0.781-2.828,0 c-0.781-0.781-0.781-2.047,0-2.828l2.828-2.828c0.78-0.78,2.047-0.78,2.827,0c0.781,0.781,0.781,2.047,0,2.828L64.142,44.688z M61.302,59.999h-4.381c0.682-1.177,1.078-2.54,1.078-3.999c0-4.418-3.581-7.999-7.998-7.999c-4.418,0-8,3.581-8,7.999 c0,1.459,0.397,2.822,1.08,3.999h-4.382c-0.443-1.252-0.697-2.595-0.697-3.999c0-6.627,5.372-11.998,11.999-11.998 c6.626,0,11.998,5.371,11.998,11.998C61.999,57.404,61.745,58.747,61.302,59.999z M50.001,40.002c-1.105,0-2-0.896-2-2v-3.999 c0-1.104,0.895-2,2-2c1.104,0,2,0.896,2,2v3.999C52.001,39.106,51.104,40.002,50.001,40.002z M35.86,44.688l-2.828-2.828 c-0.781-0.781-0.781-2.047,0-2.828c0.781-0.78,2.047-0.78,2.828,0l2.828,2.828c0.781,0.781,0.781,2.047,0,2.828 S36.642,45.469,35.86,44.688z M34.003,56c0,1.104-0.896,2-2,2h-4c-1.104,0-2-0.896-2-2s0.896-2,2-2h4 C33.107,54,34.003,54.896,34.003,56z M50.001,52c0.552,0,1,0.448,1,1v3.828l2.535-2.535c0.391-0.391,1.023-0.391,1.414,0 s0.391,1.023,0,1.414l-4.242,4.242c-0.391,0.391-1.023,0.391-1.414,0l-4.242-4.242c-0.391-0.391-0.391-1.023,0-1.414 s1.023-0.391,1.414,0l2.535,2.535V53C49.001,52.448,49.448,52,50.001,52z M40.002,63.999h19.997c1.104,0,2,0.896,2,2 s-0.896,1.999-2,1.999H40.002c-1.104,0-2-0.895-2-1.999S38.897,63.999,40.002,63.999z" />
    <path
       id="sunrise"
       d="M38.688,41.859l-2.828-2.828c-0.781-0.78-2.047-0.78-2.828,0 c-0.781,0.781-0.781,2.047,0,2.828l2.828,2.828c0.781,0.781,2.047,0.781,2.828,0C39.469,43.906,39.469,42.641,38.688,41.859z M71.997,54h-3.999c-1.104,0-1.999,0.896-1.999,2s0.895,2,1.999,2h3.999c1.105,0,2-0.896,2-2S73.103,54,71.997,54z M32.003,54h-4 c-1.104,0-2,0.896-2,2s0.896,2,2,2h4c1.104,0,2-0.896,2-2S33.106,54,32.003,54z M59.999,63.999H40.001 c-1.104,0-1.999,0.896-1.999,2s0.896,1.999,1.999,1.999h19.998c1.104,0,2-0.895,2-1.999S61.104,63.999,59.999,63.999z M66.969,39.031c-0.78-0.78-2.048-0.78-2.828,0l-2.828,2.828c-0.78,0.781-0.78,2.047,0,2.828c0.781,0.781,2.048,0.781,2.828,0 l2.828-2.828C67.749,41.078,67.749,39.812,66.969,39.031z M50.001,40.002c1.104,0,1.999-0.896,1.999-2v-3.999 c0-1.104-0.896-2-1.999-2c-1.105,0-2,0.896-2,2v3.999C48.001,39.106,48.896,40.002,50.001,40.002z M50.001,44.002 c-6.627,0-11.999,5.371-11.999,11.998c0,1.404,0.254,2.747,0.697,3.999h4.381c-0.683-1.177-1.079-2.54-1.079-3.999 c0-4.418,3.582-7.999,8-7.999c4.417,0,7.998,3.581,7.998,7.999c0,1.459-0.396,2.822-1.078,3.999h4.381 c0.443-1.252,0.697-2.595,0.697-3.999C61.999,49.373,56.627,44.002,50.001,44.002z M50.001,60.249c0.552,0,0.999-0.447,0.999-1 v-3.827l2.536,2.535c0.39,0.391,1.023,0.391,1.414,0c0.39-0.391,0.39-1.023,0-1.414l-4.242-4.242 c-0.391-0.391-1.024-0.391-1.414,0l-4.242,4.242c-0.391,0.391-0.391,1.023,0,1.414s1.023,0.391,1.414,0l2.535-2.535v3.827 C49.001,59.802,49.448,60.249,50.001,60.249z" />
    <path
       id="moon-0"
       d="M50,61.998c-6.627,0-11.999-5.372-11.999-11.998 c0-6.627,5.372-11.999,11.999-11.999c6.626,0,11.998,5.372,11.998,11.999C61.998,56.626,56.626,61.998,50,61.998z" />
    <path
       id="moon-100"
       d="M50,61.998c-6.627,0-12-5.372-12-11.999c0-6.626,5.373-11.998,12-11.998 s11.998,5.372,11.998,11.998C61.998,56.626,56.627,61.998,50,61.998z M50,42.001c-4.418,0-8,3.581-8,7.998 c0,4.418,3.582,7.999,8,7.999s7.998-3.581,7.998-7.999C57.998,45.582,54.418,42.001,50,42.001z" />
    <path
       id="moon-waning-25"
       d="M50,61.998c-6.626,0-11.999-5.371-11.999-11.998S43.374,38.001,50,38.001 c6.627,0,11.999,5.372,11.999,11.999S56.627,61.998,50,61.998z M52,42.264c-0.641-0.166-1.308-0.262-2-0.262 c-4.417,0-7.999,3.58-7.999,7.998s3.582,7.998,7.999,7.998c0.692,0,1.359-0.096,2-0.262c-3.448-0.889-5.999-4.01-5.999-7.736 S48.552,43.152,52,42.264z" />
    <path
       id="moon-waning-50"
       d="M50,61.998c6.625,0,11.998-5.371,11.998-11.999 c0-6.626-5.373-11.998-11.998-11.998c-6.627,0-12,5.372-12,11.998C38,56.627,43.373,61.998,50,61.998z M50,57.998 c-4.418,0-8-3.58-8-7.999c0-4.417,3.582-7.998,8-7.998V57.998z" />
    <path
       id="moon-waning-75"
       d="M50,61.998c6.625,0,11.998-5.371,11.998-11.998S56.625,38.001,50,38.001 c-6.627,0-12,5.372-12,11.999S43.373,61.998,50,61.998z M50,42.002c2.209,0,3.998,3.58,3.998,7.998S52.209,57.998,50,57.998 c-4.418,0-8-3.58-8-7.998S45.582,42.002,50,42.002z" />
    <path
       id="moon-waxing-25"
       d="M50,61.999c6.627,0,11.999-5.373,11.999-11.998c0-6.627-5.372-12-11.999-12 c-6.626,0-11.998,5.373-11.998,12C38.002,56.626,43.374,61.999,50,61.999z M48.001,42.263c0.64-0.164,1.308-0.262,1.999-0.262 c4.418,0,7.999,3.582,7.999,8c0,4.416-3.581,7.998-7.999,7.998c-0.691,0-1.359-0.098-1.999-0.262C51.449,56.849,54,53.726,54,50.001 C54,46.274,51.449,43.153,48.001,42.263z" />
    <path
       id="moon-waxing-50"
       d="M50,61.998c-6.627,0-11.998-5.372-11.998-11.998 c0-6.627,5.371-11.999,11.998-11.999S61.999,43.373,61.999,50C61.999,56.626,56.627,61.998,50,61.998z M50,57.999 c4.418,0,7.999-3.582,7.999-7.999c0-4.418-3.581-7.999-7.999-7.999V57.999z" />
    <path
       id="moon-waxing-75"
       d="M50,61.998c-6.627,0-11.998-5.372-11.998-11.999 c0-6.626,5.371-11.998,11.998-11.998s11.998,5.372,11.998,11.998C61.998,56.626,56.627,61.998,50,61.998z M50,42.001 c-2.209,0-4,3.581-4,7.998c0,4.418,1.791,7.999,4,7.999c4.418,0,7.999-3.581,7.999-7.999C57.999,45.582,54.418,42.001,50,42.001z" />
  </defs>
  <text
     x="307.69305"
     y="523.17084"
     fill="#000000"
     font-family="'DejaVu Sans'"
     font-size="40px"
     letter-spacing="0px"
     text-align="end"
     text-anchor="end"
     word-spacing="0px"
     style="font-size:40px;line-height:1.25;font-family:'DejaVu Sans';font-variant-ligatures:normal;font-variant-caps:normal;font-variant-numeric:normal;font-feature-settings:normal;text-align:end;letter-spacing:0px;word-spacing:0px;text-anchor:end;fill:#000000"
     line-height="1.25"
     xml:space="preserve"
     id="text7884"><tspan
       font-family="'DejaVu Sans'"
       font-size="32px"
       text-align="end"
       text-anchor="end"
       style="font-style:normal;font-variant:normal;font-weight:normal;font-stretch:normal;font-size:60px;font-family:'DejaVu Sans';-inkscape-font-specification:'DejaVu Sans, Normal';font-variant-ligatures:normal;font-variant-caps:normal;font-variant-numeric:normal;font-variant-east-asian:normal"
       id="tspan7882">$CHL</tspan></text>
  <text
     x="305.70923"
     y="397.41556"
     font-family="'DejaVu Sans'"
     font-size="16px"
     text-align="end"
     text-anchor="end"
     style="font-variant-ligatures:normal;font-variant-caps:normal;font-variant-numeric:normal;font-feature-settings:normal"
     id="text7886">最高温度</text>
  <text
     x="307.80832"
     y="453.30008"
     fill="#000000"
     font-family="'DejaVu Sans'"
     font-size="40px"
     letter-spacing="0px"
     text-align="end"
     text-anchor="end"
     word-spacing="0px"
     style="font-size:40px;line-height:1.25;font-family:'DejaVu Sans';font-variant-ligatures:normal;font-variant-caps:normal;font-variant-numeric:normal;font-feature-settings:normal;text-align:end;letter-spacing:0px;word-spacing:0px;text-anchor:end;fill:#000000"
     line-height="1.25"
     xml:space="preserve"
     id="text7890"><tspan
       font-family="'DejaVu Sans'"
       font-size="32px"
       text-align="end"
       text-anchor="end"
       style="font-style:normal;font-variant:normal;font-weight:normal;font-stretch:normal;font-size:60px;font-family:'DejaVu Sans';-inkscape-font-specification:'DejaVu Sans, Normal';font-variant-ligatures:normal;font-variant-caps:normal;font-variant-numeric:normal;font-variant-east-asian:normal"
       id="tspan7888">$CHH</tspan></text>
  <text
     x="299.39093"
     y="470.08514"
     font-family="'DejaVu Sans'"
     font-size="16px"
     text-align="end"
     text-anchor="end"
     style="font-variant-ligatures:normal;font-variant-caps:normal;font-variant-numeric:normal;font-feature-settings:normal"
     id="text7894"><tspan
       font-family="'DejaVu Sans'"
       font-size="16px"
       text-align="end"
       text-anchor="end"
       style="font-variant-ligatures:normal;font-variant-caps:normal;font-variant-numeric:normal;font-feature-settings:normal"
       id="tspan7892">最低温度</tspan></text>
  <text
     x="571.21027"
     y="504.36465"
     font-family="'DejaVu Sans'"
     font-size="133.33px"
     text-align="end"
     text-anchor="end"
     style="font-variant-ligatures:normal;font-variant-caps:normal;font-variant-numeric:normal;font-feature-settings:normal"
     id="text7898"><tspan
       font-family="'DejaVu Sans'"
       font-size="133.33px"
       text-align="end"
       text-anchor="end"
       style="font-variant-ligatures:normal;font-variant-caps:normal;font-variant-numeric:normal;font-feature-settings:normal"
       id="tspan7896">$CT</tspan></text>
  <use
     transform="matrix(.72798 0 0 .728 180 46.998)"
     width="100%"
     height="100%"
     font-family="'DejaVu Sans'"
     xlink:href="#$I0"
     id="use7900" />
  <use
     transform="matrix(.182 0 0 .182 11 288.51)"
     width="100%"
     height="100%"
     font-family="'DejaVu Sans'"
     xlink:href="#$J01"
     id="use7902" />
  <use
     transform="matrix(.182 0 0 .182 60.1 288.51)"
     width="100%"
     height="100%"
     font-family="'DejaVu Sans'"
     xlink:href="#$J02"
     id="use7904" />
  <use
     transform="matrix(.182 0 0 .182 109.2 288.51)"
     width="100%"
     height="100%"
     font-family="'DejaVu Sans'"
     xlink:href="#$J03"
     id="use7906" />
  <use
     transform="matrix(.182 0 0 .182 158.3 288.51)"
     width="100%"
     height="100%"
     font-family="'DejaVu Sans'"
     xlink:href="#$J04"
     id="use7908" />
  <use
     transform="matrix(.182 0 0 .182 207.4 288.51)"
     width="100%"
     height="100%"
     font-family="'DejaVu Sans'"
     xlink:href="#$J05"
     id="use7910" />
  <use
     transform="matrix(.182 0 0 .182 256.5 288.51)"
     width="100%"
     height="100%"
     font-family="'DejaVu Sans'"
     xlink:href="#$J06"
     id="use7912" />
  <use
     transform="matrix(.182 0 0 .182 305.6 288.51)"
     width="100%"
     height="100%"
     font-family="'DejaVu Sans'"
     xlink:href="#$J07"
     id="use7914" />
  <use
     transform="matrix(.182 0 0 .182 354.7 288.51)"
     width="100%"
     height="100%"
     font-family="'DejaVu Sans'"
     xlink:href="#$J08"
     id="use7916" />
  <use
     transform="matrix(.182 0 0 .182 403.8 288.51)"
     width="100%"
     height="100%"
     font-family="'DejaVu Sans'"
     xlink:href="#$J09"
     id="use7918" />
  <use
     transform="matrix(.182 0 0 .182 452.9 288.51)"
     width="100%"
     height="100%"
     font-family="'DejaVu Sans'"
     xlink:href="#$J10"
     id="use7920" />
  <use
     transform="matrix(.182 0 0 .182 502 288.51)"
     width="100%"
     height="100%"
     font-family="'DejaVu Sans'"
     xlink:href="#$J11"
     id="use7922" />
  <use
     transform="matrix(.182 0 0 .182 550 288.51)"
     width="100%"
     height="100%"
     font-family="'DejaVu Sans'"
     xlink:href="#$J12"
     id="use7924" />
  <path
     d="m10 775h580v-2h-580z"
     stroke-width="1.0967"
     id="path7938" />
  <use
     transform="matrix(.182 0 0 .182 11 382.51)"
     width="100%"
     height="100%"
     font-family="'DejaVu Sans'"
     xlink:href="#$J13"
     id="use8092" />
  <use
     transform="matrix(.182 0 0 .182 60.1 382.51)"
     width="100%"
     height="100%"
     font-family="'DejaVu Sans'"
     xlink:href="#$J14"
     id="use8094" />
  <use
     transform="matrix(.182 0 0 .182 109.2 382.51)"
     width="100%"
     height="100%"
     font-family="'DejaVu Sans'"
     xlink:href="#$J15"
     id="use8096" />
  <use
     transform="matrix(.182 0 0 .182 158.3 382.51)"
     width="100%"
     height="100%"
     font-family="'DejaVu Sans'"
     xlink:href="#$J16"
     id="use8098" />
  <use
     transform="matrix(.182 0 0 .182 207.4 382.51)"
     width="100%"
     height="100%"
     font-family="'DejaVu Sans'"
     xlink:href="#$J17"
     id="use8100" />
  <use
     transform="matrix(.182 0 0 .182 256.5 382.51)"
     width="100%"
     height="100%"
     font-family="'DejaVu Sans'"
     xlink:href="#$J18"
     id="use8102" />
  <use
     transform="matrix(.182 0 0 .182 305.6 382.51)"
     width="100%"
     height="100%"
     font-family="'DejaVu Sans'"
     xlink:href="#$J19"
     id="use8104" />
  <use
     transform="matrix(.182 0 0 .182 354.7 382.51)"
     width="100%"
     height="100%"
     font-family="'DejaVu Sans'"
     xlink:href="#$J20"
     id="use8106" />
  <use
     transform="matrix(.182 0 0 .182 403.8 382.51)"
     width="100%"
     height="100%"
     font-family="'DejaVu Sans'"
     xlink:href="#$J21"
     id="use8108" />
  <use
     transform="matrix(.182 0 0 .182 452.9 382.51)"
     width="100%"
     height="100%"
     font-family="'DejaVu Sans'"
     xlink:href="#$J22"
     id="use8110" />
  <use
     transform="matrix(.182 0 0 .182 502 382.51)"
     width="100%"
     height="100%"
     font-family="'DejaVu Sans'"
     xlink:href="#$J23"
     id="use8112" />
  <use
     transform="matrix(.182 0 0 .182 550 382.51)"
     width="100%"
     height="100%"
     font-family="'DejaVu Sans'"
     xlink:href="#$J24"
     id="use8114" />
  <path
     d="m 10,376.76998 h 580 v 1 H 10 Z"
     stroke-width="0.77547"
     id="path8260" />
  <text
     x="224.61642"
     y="602.68896"
     font-family="'DejaVu Sans'"
     style="font-variant-ligatures:normal;font-variant-caps:normal;font-variant-numeric:normal;font-feature-settings:normal"
     id="text8286"><tspan
       font-size="60px"
       style="font-variant-ligatures:normal;font-variant-caps:normal;font-variant-numeric:normal;font-feature-settings:normal"
       id="tspan8282">$CL</tspan><tspan
       font-size="30px"
       style="font-variant-ligatures:normal;font-variant-caps:normal;font-variant-numeric:normal;font-feature-settings:normal"
       id="tspan8284">%</tspan></text>
  <text
     x="224.09808"
     y="553.30194"
     font-family="'DejaVu Sans'"
     font-size="9.3333px"
     style="font-size:9.3333px;font-family:'DejaVu Sans';font-variant-ligatures:normal;font-variant-caps:normal;font-variant-numeric:normal;font-feature-settings:normal"
     id="text8290"><tspan
       font-family="'DejaVu Sans'"
       font-size="10.667px"
       style="font-style:normal;font-variant:normal;font-weight:normal;font-stretch:normal;font-size:16px;font-family:'DejaVu Sans';-inkscape-font-specification:'DejaVu Sans, Normal';font-variant-ligatures:normal;font-variant-caps:normal;font-variant-numeric:normal;font-variant-east-asian:normal"
       id="tspan8288">相对湿度(%)</tspan></text>
  <use
     transform="matrix(.182 0 0 .182 92 505.31)"
     width="100%"
     height="100%"
     font-family="'DejaVu Sans'"
     xlink:href="#$I1"
     id="use8292" />
  <text
     x="291.52542"
     y="606.77966"
     fill="#000000"
     font-family="sans-serif"
     font-size="40px"
     letter-spacing="0px"
     word-spacing="0px"
     style="line-height:1.25"
     line-height="1.25"
     xml:space="preserve"
     id="text8330"><tspan
       x="291.52542"
       y="642.17029"
       id="tspan8328" /></text>
  <use
     transform="matrix(.182 0 0 .182 92 551.31)"
     width="100%"
     height="100%"
     font-family="'DejaVu Sans'"
     xlink:href="#$I2"
     id="use8366" />
  <use
     transform="matrix(.182 0 0 .182 92 596)"
     width="100%"
     height="100%"
     font-family="'DejaVu Sans'"
     xlink:href="#$I3"
     id="use8398" />
  <use
     transform="matrix(.93762 0 0 .93762 488.37 181.87)"
     width="100%"
     height="100%"
     font-family="'DejaVu Sans'"
     xlink:href="#$MI"
     id="use8430" />
  <text
     x="555.31201"
     y="41.859333"
     fill="#000000"
     font-family="'DejaVu Sans'"
     font-size="40px"
     letter-spacing="0px"
     word-spacing="0px"
     style="line-height:1.25;font-variant-ligatures:normal;font-variant-caps:normal;font-variant-numeric:normal;font-feature-settings:normal;letter-spacing:0px"
     line-height="1.25"
     xml:space="preserve"
     id="text8442"><tspan
       x="555.31201"
       y="41.859333"
       font-family="'DejaVu Sans'"
       font-size="33.333px"
       text-align="end"
       text-anchor="end"
       style="font-variant-ligatures:normal;font-variant-caps:normal;font-variant-numeric:normal;font-feature-settings:normal"
       id="tspan8440">广宁 </tspan></text>
  <text
     xml:space="preserve"
     id="text8456"
     style="fill:black;fill-opacity:1;line-height:1.25;stroke:none;font-family:sans-serif;font-style:normal;font-weight:normal;font-size:40px;white-space:pre;shape-inside:url(#rect8458);" />
  <text
     x="31.959942"
     y="444.66272"
     font-family="'DejaVu Sans'"
     font-size="53.333px"
     style="font-variant-ligatures:normal;font-variant-caps:normal;font-variant-numeric:normal;font-feature-settings:normal"
     id="text7844-3"><tspan
       font-family="'DejaVu Sans'"
       font-size="60px"
       style="font-variant-ligatures:normal;font-variant-caps:normal;font-variant-numeric:normal;font-feature-settings:normal"
       id="tspan7842-2">$TEXT</tspan></text>
  <path
     d="M 873.37401,590.2421 V 319.12195 h 0.46744 V 590.2421 Z"
     stroke-width="0.362492"
     id="path7946-7" />
  <text
     x="211.27367"
     y="41.765942"
     fill="#000000"
     font-family="'DejaVu Sans'"
     font-size="40px"
     letter-spacing="0px"
     text-align="end"
     text-anchor="end"
     word-spacing="0px"
     style="line-height:1.25;font-variant-ligatures:normal;font-variant-caps:normal;font-variant-numeric:normal;font-feature-settings:normal"
     line-height="1.25"
     xml:space="preserve"
     id="text7890-8"><tspan
       font-family="'DejaVu Sans'"
       font-size="32px"
       text-align="end"
       text-anchor="end"
       style="font-variant-ligatures:normal;font-variant-caps:normal;font-variant-numeric:normal;font-feature-settings:normal"
       id="tspan7888-7">$DATE</tspan></text>
  <text
     x="311.03156"
     y="39.828903"
     fill="#000000"
     font-family="'DejaVu Sans'"
     font-size="40px"
     letter-spacing="0px"
     text-align="end"
     text-anchor="end"
     word-spacing="0px"
     style="line-height:1.25;font-variant-ligatures:normal;font-variant-caps:normal;font-variant-numeric:normal;font-feature-settings:normal;letter-spacing:0px"
     line-height="1.25"
     xml:space="preserve"
     id="text7890-2"><tspan
       font-family="'DejaVu Sans'"
       font-size="32px"
       text-align="end"
       text-anchor="end"
       style="font-variant-ligatures:normal;font-variant-caps:normal;font-variant-numeric:normal;font-feature-settings:normal;"
       id="tspan7888-79">$WEEK</tspan></text>
  <text
     x="422.70309"
     y="226.96129"
     font-family="'DejaVu Sans'"
     font-size="133.33px"
     text-align="end"
     text-anchor="end"
     style="font-size:133.33px;font-family:'DejaVu Sans';font-variant-ligatures:normal;font-variant-caps:normal;font-variant-numeric:normal;font-feature-settings:normal;text-align:end;text-anchor:end"
     id="text7898-9"><tspan
       font-family="'DejaVu Sans'"
       font-size="133.33px"
       text-align="end"
       text-anchor="end"
       style="font-style:normal;font-variant:normal;font-weight:normal;font-stretch:normal;font-size:173.333px;font-family:'DejaVu Sans';-inkscape-font-specification:'DejaVu Sans, Normal';font-variant-ligatures:normal;font-variant-caps:normal;font-variant-numeric:normal;font-variant-east-asian:normal"
       id="tspan7896-2">$D</tspan></text>
  <text
     x="469.75449"
     y="293.86737"
     fill="#000000"
     font-family="'DejaVu Sans'"
     font-size="40px"
     letter-spacing="0px"
     text-align="end"
     text-anchor="end"
     word-spacing="0px"
     style="line-height:1.25;font-variant-ligatures:normal;font-variant-caps:normal;font-variant-numeric:normal;font-feature-settings:normal"
     line-height="1.25"
     xml:space="preserve"
     id="text7890-83-4"><tspan
       font-family="'DejaVu Sans'"
       font-size="32px"
       text-align="end"
       text-anchor="end"
       style="font-variant-ligatures:normal;font-variant-caps:normal;font-variant-numeric:normal;font-feature-settings:normal"
       id="tspan7888-74-3">$LUNAR</tspan></text>
  <text
     x="335.73538"
     y="342.91147"
     fill="#000000"
     font-family="'DejaVu Sans'"
     font-size="40px"
     letter-spacing="0px"
     text-align="end"
     text-anchor="end"
     word-spacing="0px"
     style="line-height:1.25;font-variant-ligatures:normal;font-variant-caps:normal;font-variant-numeric:normal;font-feature-settings:normal"
     line-height="1.25"
     xml:space="preserve"
     id="text7890-83-5"><tspan
       font-family="'DejaVu Sans'"
       font-size="32px"
       text-align="end"
       text-anchor="end"
       style="font-variant-ligatures:normal;font-variant-caps:normal;font-variant-numeric:normal;font-feature-settings:normal"
       id="tspan7888-74-7">$HD</tspan></text>
  <text
     xml:space="preserve"
     id="text931"
     style="fill:black;fill-opacity:1;line-height:1.25;stroke:none;font-family:sans-serif;font-style:normal;font-weight:normal;font-size:40px;white-space:pre;shape-inside:url(#rect933);" />
  <text
     xml:space="preserve"
     id="text937"
     style="fill:black;fill-opacity:1;line-height:1.25;stroke:none;font-family:sans-serif;font-style:normal;font-weight:normal;font-size:40px;white-space:pre;shape-inside:url(#rect939);" />
  <text
     x="84.798599"
     y="481.95026"
     font-family="'DejaVu Sans'"
     font-size="16px"
     text-align="end"
     text-anchor="end"
     style="font-variant-ligatures:normal;font-variant-caps:normal;font-variant-numeric:normal;font-feature-settings:normal"
     id="text7886-0">室内温度</text>
  <text
     x="150.27798"
     y="535.36639"
     fill="#000000"
     font-family="'DejaVu Sans'"
     font-size="40px"
     letter-spacing="0px"
     text-align="end"
     text-anchor="end"
     word-spacing="0px"
     style="font-size:40px;line-height:1.25;font-family:'DejaVu Sans';font-variant-ligatures:normal;font-variant-caps:normal;font-variant-numeric:normal;font-feature-settings:normal;text-align:end;letter-spacing:0px;word-spacing:0px;text-anchor:end;fill:#000000"
     line-height="1.25"
     xml:space="preserve"
     id="text7890-6"><tspan
       font-family="'DejaVu Sans'"
       font-size="32px"
       text-align="end"
       text-anchor="end"
       style="font-style:normal;font-variant:normal;font-weight:normal;font-stretch:normal;font-size:60px;font-family:'DejaVu Sans';-inkscape-font-specification:'DejaVu Sans, Normal';font-variant-ligatures:normal;font-variant-caps:normal;font-variant-numeric:normal;font-variant-east-asian:normal"
       id="tspan7888-3">$CHR</tspan></text>
  <text
     x="83.575729"
     y="554.94775"
     font-family="'DejaVu Sans'"
     font-size="16px"
     text-align="end"
     text-anchor="end"
     style="font-variant-ligatures:normal;font-variant-caps:normal;font-variant-numeric:normal;font-feature-settings:normal"
     id="text7886-0-6">室内湿度</text>
  <text
     x="175.95964"
     y="606.17175"
     fill="#000000"
     font-family="'DejaVu Sans'"
     font-size="40px"
     letter-spacing="0px"
     text-align="end"
     text-anchor="end"
     word-spacing="0px"
     style="font-size:40px;line-height:1.25;font-family:'DejaVu Sans';font-variant-ligatures:normal;font-variant-caps:normal;font-variant-numeric:normal;font-feature-settings:normal;text-align:end;letter-spacing:0px;word-spacing:0px;text-anchor:end;fill:#000000"
     line-height="1.25"
     xml:space="preserve"
     id="text7890-6-0"><tspan
       style="font-style:normal;font-variant:normal;font-weight:normal;font-stretch:normal;font-size:60px;font-family:'DejaVu Sans';-inkscape-font-specification:'DejaVu Sans, Normal';font-variant-ligatures:normal;font-variant-caps:normal;font-variant-numeric:normal;font-variant-east-asian:normal"
       id="tspan1155">$CR</tspan><tspan
       style="font-style:normal;font-variant:normal;font-weight:normal;font-stretch:normal;font-size:24px;font-family:'DejaVu Sans';-inkscape-font-specification:'DejaVu Sans, Normal';font-variant-ligatures:normal;font-variant-caps:normal;font-variant-numeric:normal;font-variant-east-asian:normal"
       id="tspan1152">%</tspan></text>
  <text
     xml:space="preserve"
     id="text1069"
     style="fill:black;fill-opacity:1;line-height:1.25;stroke:none;font-family:sans-serif;font-style:normal;font-weight:normal;font-size:40px;white-space:pre;shape-inside:url(#rect1071);" />
  <path
     d="m 205.68091,618.46686 v 154.25569 h -0.26595 V 618.46686 Z"
     stroke-width="0.206242"
     id="path7946-74" />
  <path
     d="M 9.7578703,618.91767 H 589.75787 v -2 H 9.7578703 Z"
     stroke-width="1.0967"
     id="path7938-8" />
  <path
     d="m 413.78188,618.67893 v 154.25569 h -0.26595 V 618.67893 Z"
     stroke-width="0.206242"
     id="path7946-74-9" />
  <text
     x="92.996231"
     y="648.66101"
     font-family="'DejaVu Sans'"
     font-size="16px"
     font-weight="bold"
     text-align="center"
     text-anchor="middle"
     style="font-style:normal;font-variant:normal;font-weight:bold;font-stretch:normal;font-size:32px;font-family:'DejaVu Sans';-inkscape-font-specification:'DejaVu Sans, Bold';font-variant-ligatures:normal;font-variant-caps:normal;font-variant-numeric:normal;font-variant-east-asian:normal;text-align:center;text-anchor:middle"
     id="text8042-4"><tspan
       font-family="'DejaVu Sans'"
       font-size="16px"
       font-weight="bold"
       text-align="center"
       text-anchor="middle"
       style="font-style:normal;font-variant:normal;font-weight:bold;font-stretch:normal;font-size:32px;font-family:'DejaVu Sans';-inkscape-font-specification:'DejaVu Sans, Bold';font-variant-ligatures:normal;font-variant-caps:normal;font-variant-numeric:normal;font-variant-east-asian:normal"
       id="tspan8040-1">$FD1</tspan></text>
  <text
     x="65.156754"
     y="706.68689"
     fill="#000000"
     font-family="'DejaVu Sans'"
     font-size="40px"
     letter-spacing="0px"
     word-spacing="0px"
     style="line-height:1.25;font-variant-ligatures:normal;font-variant-caps:normal;font-variant-numeric:normal;font-feature-settings:normal"
     line-height="1.25"
     xml:space="preserve"
     id="text8296-4"><tspan
       x="65.156754"
       y="706.68689"
       font-family="'DejaVu Sans'"
       font-size="40px"
       style="font-variant-ligatures:normal;font-variant-caps:normal;font-variant-numeric:normal;font-feature-settings:normal"
       id="tspan8294-6">$T1</tspan></text>
  <text
     x="44.636353"
     y="766.0188"
     font-family="'DejaVu Sans'"
     font-size="16px"
     font-weight="bold"
     text-align="center"
     text-anchor="middle"
     style="font-style:normal;font-variant:normal;font-weight:bold;font-stretch:normal;font-size:32px;font-family:'DejaVu Sans';-inkscape-font-specification:'DejaVu Sans, Bold';font-variant-ligatures:normal;font-variant-caps:normal;font-variant-numeric:normal;font-variant-east-asian:normal;text-align:center;text-anchor:middle"
     id="text8210-4"><tspan
       font-family="'DejaVu Sans'"
       font-size="16px"
       font-weight="bold"
       text-align="center"
       text-anchor="middle"
       style="font-style:normal;font-variant:normal;font-weight:bold;font-stretch:normal;font-size:32px;font-family:'DejaVu Sans';-inkscape-font-specification:'DejaVu Sans, Bold';font-variant-ligatures:normal;font-variant-caps:normal;font-variant-numeric:normal;font-variant-east-asian:normal"
       id="tspan8208-5">$TX1</tspan></text>
  <text
     x="154.16167"
     y="764.73163"
     font-family="'DejaVu Sans'"
     font-size="16px"
     font-weight="bold"
     text-align="center"
     text-anchor="middle"
     style="font-style:normal;font-variant:normal;font-weight:bold;font-stretch:normal;font-size:32px;font-family:'DejaVu Sans';-inkscape-font-specification:'DejaVu Sans, Bold';font-variant-ligatures:normal;font-variant-caps:normal;font-variant-numeric:normal;font-variant-east-asian:normal;text-align:center;text-anchor:middle"
     id="text8210-4-0"><tspan
       font-family="'DejaVu Sans'"
       font-size="16px"
       font-weight="bold"
       text-align="center"
       text-anchor="middle"
       style="font-style:normal;font-variant:normal;font-weight:bold;font-stretch:normal;font-size:32px;font-family:'DejaVu Sans';-inkscape-font-specification:'DejaVu Sans, Bold';font-variant-ligatures:normal;font-variant-caps:normal;font-variant-numeric:normal;font-variant-east-asian:normal"
       id="tspan8208-5-2">$TN1</tspan></text>
  <text
     x="33.041965"
     y="1950.9796"
     font-family="'DejaVu Sans'"
     font-size="13.9528px"
     style="font-variant-ligatures:normal;font-variant-caps:normal;font-variant-numeric:normal;font-feature-settings:normal;stroke-width:2.57466"
     id="text8290-8"
     transform="scale(2.5746591,0.38840093)"><tspan
       font-family="'DejaVu Sans'"
       font-size="27.4639px"
       style="font-variant-ligatures:normal;font-variant-caps:normal;font-variant-numeric:normal;font-feature-settings:normal;stroke-width:4.42335"
       id="tspan8288-1">-</tspan></text>
  <text
     x="312.79926"
     y="648.66431"
     font-family="'DejaVu Sans'"
     font-size="16px"
     font-weight="bold"
     text-align="center"
     text-anchor="middle"
     style="font-style:normal;font-variant:normal;font-weight:bold;font-stretch:normal;font-size:32px;font-family:'DejaVu Sans';-inkscape-font-specification:'DejaVu Sans, Bold';font-variant-ligatures:normal;font-variant-caps:normal;font-variant-numeric:normal;font-variant-east-asian:normal;text-align:center;text-anchor:middle"
     id="text8042-4-7"><tspan
       font-family="'DejaVu Sans'"
       font-size="16px"
       font-weight="bold"
       text-align="center"
       text-anchor="middle"
       style="font-style:normal;font-variant:normal;font-weight:bold;font-stretch:normal;font-size:32px;font-family:'DejaVu Sans';-inkscape-font-specification:'DejaVu Sans, Bold';font-variant-ligatures:normal;font-variant-caps:normal;font-variant-numeric:normal;font-variant-east-asian:normal"
       id="tspan8040-1-2">$FD2</tspan></text>
  <text
     x="273.38199"
     y="709.83453"
     fill="#000000"
     font-family="'DejaVu Sans'"
     font-size="40px"
     letter-spacing="0px"
     word-spacing="0px"
     style="line-height:1.25;font-variant-ligatures:normal;font-variant-caps:normal;font-variant-numeric:normal;font-feature-settings:normal"
     line-height="1.25"
     xml:space="preserve"
     id="text8296-4-2"><tspan
       x="273.38199"
       y="709.83453"
       font-family="'DejaVu Sans'"
       font-size="40px"
       style="font-variant-ligatures:normal;font-variant-caps:normal;font-variant-numeric:normal;font-feature-settings:normal"
       id="tspan8294-6-4">$T2</tspan></text>
  <text
     x="503.15195"
     y="648.85077"
     font-family="'DejaVu Sans'"
     font-size="16px"
     font-weight="bold"
     text-align="center"
     text-anchor="middle"
     style="font-style:normal;font-variant:normal;font-weight:bold;font-stretch:normal;font-size:32px;font-family:'DejaVu Sans';-inkscape-font-specification:'DejaVu Sans, Bold';font-variant-ligatures:normal;font-variant-caps:normal;font-variant-numeric:normal;font-variant-east-asian:normal;text-align:center;text-anchor:middle"
     id="text8042-4-2"><tspan
       font-family="'DejaVu Sans'"
       font-size="16px"
       font-weight="bold"
       text-align="center"
       text-anchor="middle"
       style="font-style:normal;font-variant:normal;font-weight:bold;font-stretch:normal;font-size:32px;font-family:'DejaVu Sans';-inkscape-font-specification:'DejaVu Sans, Bold';font-variant-ligatures:normal;font-variant-caps:normal;font-variant-numeric:normal;font-variant-east-asian:normal"
       id="tspan8040-1-1">$FD3</tspan></text>
  <text
     x="466.11807"
     y="708.86609"
     fill="#000000"
     font-family="'DejaVu Sans'"
     font-size="40px"
     letter-spacing="0px"
     word-spacing="0px"
     style="line-height:1.25;font-variant-ligatures:normal;font-variant-caps:normal;font-variant-numeric:normal;font-feature-settings:normal"
     line-height="1.25"
     xml:space="preserve"
     id="text8296-4-24"><tspan
       x="466.11807"
       y="708.86609"
       font-family="'DejaVu Sans'"
       font-size="40px"
       style="font-variant-ligatures:normal;font-variant-caps:normal;font-variant-numeric:normal;font-feature-settings:normal"
       id="tspan8294-6-3">$T3</tspan></text>
  <text
     xml:space="preserve"
     id="text1349"
     style="fill:black;fill-opacity:1;line-height:1.25;stroke:none;font-family:sans-serif;font-style:normal;font-weight:normal;font-size:40px;white-space:pre;shape-inside:url(#rect1351);" />
  <text
     xml:space="preserve"
     style="font-style:normal;font-weight:normal;font-size:40px;line-height:1.25;font-family:sans-serif;fill:#000000;fill-opacity:1;stroke:none"
     x="713.66992"
     y="459.45734"
     id="text6106"><tspan
       sodipodi:role="line"
       id="tspan6104"
       x="713.66992"
       y="459.45734" /></text>
  <text
     x="568.39838"
     y="392.08984"
     font-family="'DejaVu Sans'"
     font-size="16px"
     text-align="end"
     text-anchor="end"
     style="font-style:normal;font-variant:normal;font-weight:normal;font-stretch:normal;font-size:10.6667px;font-family:'DejaVu Sans';-inkscape-font-specification:'DejaVu Sans, Normal';font-variant-ligatures:normal;font-variant-caps:normal;font-variant-numeric:normal;font-variant-east-asian:normal;text-align:end;text-anchor:end"
     id="text7886-3-6-5">o</text>
  <text
     x="576.21118"
     y="401.56964"
     font-family="'DejaVu Sans'"
     font-size="16px"
     text-align="end"
     text-anchor="end"
     style="font-variant-ligatures:normal;font-variant-caps:normal;font-variant-numeric:normal;font-feature-settings:normal"
     id="text7886-3-7-3">C</text>
  <text
     x="307.79343"
     y="414.57449"
     font-family="'DejaVu Sans'"
     font-size="16px"
     text-align="end"
     text-anchor="end"
     style="font-style:normal;font-variant:normal;font-weight:normal;font-stretch:normal;font-size:10.6667px;font-family:'DejaVu Sans';-inkscape-font-specification:'DejaVu Sans, Normal';font-variant-ligatures:normal;font-variant-caps:normal;font-variant-numeric:normal;font-variant-east-asian:normal;text-align:end;text-anchor:end"
     id="text7886-3-6-5-4">o</text>
  <text
     x="315.60623"
     y="424.05429"
     font-family="'DejaVu Sans'"
     font-size="16px"
     text-align="end"
     text-anchor="end"
     style="font-variant-ligatures:normal;font-variant-caps:normal;font-variant-numeric:normal;font-feature-settings:normal"
     id="text7886-3-7-3-3">C</text>
  <text
     x="305.24872"
     y="481.60687"
     font-family="'DejaVu Sans'"
     font-size="16px"
     text-align="end"
     text-anchor="end"
     style="font-style:normal;font-variant:normal;font-weight:normal;font-stretch:normal;font-size:10.6667px;font-family:'DejaVu Sans';-inkscape-font-specification:'DejaVu Sans, Normal';font-variant-ligatures:normal;font-variant-caps:normal;font-variant-numeric:normal;font-variant-east-asian:normal;text-align:end;text-anchor:end"
     id="text7886-3-6-5-4-3">o</text>
  <text
     x="313.06152"
     y="491.08667"
     font-family="'DejaVu Sans'"
     font-size="16px"
     text-align="end"
     text-anchor="end"
     style="font-variant-ligatures:normal;font-variant-caps:normal;font-variant-numeric:normal;font-feature-settings:normal"
     id="text7886-3-7-3-3-3">C</text>
  <text
     x="150.30536"
     y="495.47482"
     font-family="'DejaVu Sans'"
     font-size="16px"
     text-align="end"
     text-anchor="end"
     style="font-style:normal;font-variant:normal;font-weight:normal;font-stretch:normal;font-size:10.6667px;font-family:'DejaVu Sans';-inkscape-font-specification:'DejaVu Sans, Normal';font-variant-ligatures:normal;font-variant-caps:normal;font-variant-numeric:normal;font-variant-east-asian:normal;text-align:end;text-anchor:end"
     id="text7886-3-6-5-4-8">o</text>
  <text
     x="158.11816"
     y="504.95462"
     font-family="'DejaVu Sans'"
     font-size="16px"
     text-align="end"
     text-anchor="end"
     style="font-variant-ligatures:normal;font-variant-caps:normal;font-variant-numeric:normal;font-feature-settings:normal"
     id="text7886-3-7-3-3-6">C</text>
  <text
     x="510.46149"
     y="395.03406"
     font-family="'DejaVu Sans'"
     font-size="16px"
     text-align="end"
     text-anchor="end"
     style="font-variant-ligatures:normal;font-variant-caps:normal;font-variant-numeric:normal;font-feature-settings:normal"
     id="text7886-1">当前温度</text>
  <text
     x="253.76566"
     y="765.31506"
     font-family="'DejaVu Sans'"
     font-size="16px"
     font-weight="bold"
     text-align="center"
     text-anchor="middle"
     style="font-style:normal;font-variant:normal;font-weight:bold;font-stretch:normal;font-size:32px;font-family:'DejaVu Sans';-inkscape-font-specification:'DejaVu Sans, Bold';font-variant-ligatures:normal;font-variant-caps:normal;font-variant-numeric:normal;font-variant-east-asian:normal;text-align:center;text-anchor:middle"
     id="text8210-4-8"><tspan
       font-family="'DejaVu Sans'"
       font-size="16px"
       font-weight="bold"
       text-align="center"
       text-anchor="middle"
       style="font-style:normal;font-variant:normal;font-weight:bold;font-stretch:normal;font-size:32px;font-family:'DejaVu Sans';-inkscape-font-specification:'DejaVu Sans, Bold';font-variant-ligatures:normal;font-variant-caps:normal;font-variant-numeric:normal;font-variant-east-asian:normal"
       id="tspan8208-5-9">$TX2</tspan></text>
  <text
     x="363.29099"
     y="764.02789"
     font-family="'DejaVu Sans'"
     font-size="16px"
     font-weight="bold"
     text-align="center"
     text-anchor="middle"
     style="font-style:normal;font-variant:normal;font-weight:bold;font-stretch:normal;font-size:32px;font-family:'DejaVu Sans';-inkscape-font-specification:'DejaVu Sans, Bold';font-variant-ligatures:normal;font-variant-caps:normal;font-variant-numeric:normal;font-variant-east-asian:normal;text-align:center;text-anchor:middle"
     id="text8210-4-0-6"><tspan
       font-family="'DejaVu Sans'"
       font-size="16px"
       font-weight="bold"
       text-align="center"
       text-anchor="middle"
       style="font-style:normal;font-variant:normal;font-weight:bold;font-stretch:normal;font-size:32px;font-family:'DejaVu Sans';-inkscape-font-specification:'DejaVu Sans, Bold';font-variant-ligatures:normal;font-variant-caps:normal;font-variant-numeric:normal;font-variant-east-asian:normal"
       id="tspan8208-5-2-4">$TN2</tspan></text>
  <text
     x="114.26798"
     y="1949.1678"
     font-family="'DejaVu Sans'"
     font-size="13.9528px"
     style="font-variant-ligatures:normal;font-variant-caps:normal;font-variant-numeric:normal;font-feature-settings:normal;stroke-width:2.57466"
     id="text8290-8-3"
     transform="scale(2.5746591,0.38840093)"><tspan
       font-family="'DejaVu Sans'"
       font-size="27.4639px"
       style="font-variant-ligatures:normal;font-variant-caps:normal;font-variant-numeric:normal;font-feature-settings:normal;stroke-width:4.42335"
       id="tspan8288-1-3">-</tspan></text>
  <text
     x="456.8754"
     y="763.20129"
     font-family="'DejaVu Sans'"
     font-size="16px"
     font-weight="bold"
     text-align="center"
     text-anchor="middle"
     style="font-style:normal;font-variant:normal;font-weight:bold;font-stretch:normal;font-size:32px;font-family:'DejaVu Sans';-inkscape-font-specification:'DejaVu Sans, Bold';font-variant-ligatures:normal;font-variant-caps:normal;font-variant-numeric:normal;font-variant-east-asian:normal;text-align:center;text-anchor:middle"
     id="text8210-4-8-9"><tspan
       font-family="'DejaVu Sans'"
       font-size="16px"
       font-weight="bold"
       text-align="center"
       text-anchor="middle"
       style="font-style:normal;font-variant:normal;font-weight:bold;font-stretch:normal;font-size:32px;font-family:'DejaVu Sans';-inkscape-font-specification:'DejaVu Sans, Bold';font-variant-ligatures:normal;font-variant-caps:normal;font-variant-numeric:normal;font-variant-east-asian:normal"
       id="tspan8208-5-9-7">$TX3</tspan></text>
  <text
     x="566.40076"
     y="761.91412"
     font-family="'DejaVu Sans'"
     font-size="16px"
     font-weight="bold"
     text-align="center"
     text-anchor="middle"
     style="font-style:normal;font-variant:normal;font-weight:bold;font-stretch:normal;font-size:32px;font-family:'DejaVu Sans';-inkscape-font-specification:'DejaVu Sans, Bold';font-variant-ligatures:normal;font-variant-caps:normal;font-variant-numeric:normal;font-variant-east-asian:normal;text-align:center;text-anchor:middle"
     id="text8210-4-0-6-7"><tspan
       font-family="'DejaVu Sans'"
       font-size="16px"
       font-weight="bold"
       text-align="center"
       text-anchor="middle"
       style="font-style:normal;font-variant:normal;font-weight:bold;font-stretch:normal;font-size:32px;font-family:'DejaVu Sans';-inkscape-font-specification:'DejaVu Sans, Bold';font-variant-ligatures:normal;font-variant-caps:normal;font-variant-numeric:normal;font-variant-east-asian:normal"
       id="tspan8208-5-2-4-6">$TN3</tspan></text>
  <text
     x="193.15599"
     y="1943.7255"
     font-family="'DejaVu Sans'"
     font-size="13.9528px"
     style="font-variant-ligatures:normal;font-variant-caps:normal;font-variant-numeric:normal;font-feature-settings:normal;stroke-width:2.57466"
     id="text8290-8-3-4"
     transform="scale(2.5746591,0.38840093)"><tspan
       font-family="'DejaVu Sans'"
       font-size="27.4639px"
       style="font-variant-ligatures:normal;font-variant-caps:normal;font-variant-numeric:normal;font-feature-settings:normal;stroke-width:4.42335"
       id="tspan8288-1-3-3">-</tspan></text>
  <text
     x="69.175179"
     y="736.28235"
     font-family="'DejaVu Sans'"
     font-size="16px"
     text-align="end"
     text-anchor="end"
     style="font-style:normal;font-variant:normal;font-weight:normal;font-stretch:normal;font-size:10.6667px;font-family:'DejaVu Sans';-inkscape-font-specification:'DejaVu Sans, Normal';font-variant-ligatures:normal;font-variant-caps:normal;font-variant-numeric:normal;font-variant-east-asian:normal;text-align:end;text-anchor:end"
     id="text7886-3-6-5-4-8-4">o</text>
  <text
     x="76.987976"
     y="745.76215"
     font-family="'DejaVu Sans'"
     font-size="16px"
     text-align="end"
     text-anchor="end"
     style="font-variant-ligatures:normal;font-variant-caps:normal;font-variant-numeric:normal;font-feature-settings:normal"
     id="text7886-3-7-3-3-6-6">C</text>
  <text
     x="177.19397"
     y="735.005"
     font-family="'DejaVu Sans'"
     font-size="16px"
     text-align="end"
     text-anchor="end"
     style="font-style:normal;font-variant:normal;font-weight:normal;font-stretch:normal;font-size:10.6667px;font-family:'DejaVu Sans';-inkscape-font-specification:'DejaVu Sans, Normal';font-variant-ligatures:normal;font-variant-caps:normal;font-variant-numeric:normal;font-variant-east-asian:normal;text-align:end;text-anchor:end"
     id="text7886-3-6-5-4-8-9">o</text>
  <text
     x="185.00676"
     y="744.4848"
     font-family="'DejaVu Sans'"
     font-size="16px"
     text-align="end"
     text-anchor="end"
     style="font-variant-ligatures:normal;font-variant-caps:normal;font-variant-numeric:normal;font-feature-settings:normal"
     id="text7886-3-7-3-3-6-2">C</text>
  <text
     x="275.9277"
     y="734.72174"
     font-family="'DejaVu Sans'"
     font-size="16px"
     text-align="end"
     text-anchor="end"
     style="font-style:normal;font-variant:normal;font-weight:normal;font-stretch:normal;font-size:10.6667px;font-family:'DejaVu Sans';-inkscape-font-specification:'DejaVu Sans, Normal';font-variant-ligatures:normal;font-variant-caps:normal;font-variant-numeric:normal;font-variant-east-asian:normal;text-align:end;text-anchor:end"
     id="text7886-3-6-5-4-8-2">o</text>
  <text
     x="283.74048"
     y="744.20154"
     font-family="'DejaVu Sans'"
     font-size="16px"
     text-align="end"
     text-anchor="end"
     style="font-variant-ligatures:normal;font-variant-caps:normal;font-variant-numeric:normal;font-feature-settings:normal"
     id="text7886-3-7-3-3-6-4">C</text>
  <text
     x="388.21558"
     y="733.16809"
     font-family="'DejaVu Sans'"
     font-size="16px"
     text-align="end"
     text-anchor="end"
     style="font-style:normal;font-variant:normal;font-weight:normal;font-stretch:normal;font-size:10.6667px;font-family:'DejaVu Sans';-inkscape-font-specification:'DejaVu Sans, Normal';font-variant-ligatures:normal;font-variant-caps:normal;font-variant-numeric:normal;font-variant-east-asian:normal;text-align:end;text-anchor:end"
     id="text7886-3-6-5-4-8-7">o</text>
  <text
     x="396.02838"
     y="742.64789"
     font-family="'DejaVu Sans'"
     font-size="16px"
     text-align="end"
     text-anchor="end"
     style="font-variant-ligatures:normal;font-variant-caps:normal;font-variant-numeric:normal;font-feature-settings:normal"
     id="text7886-3-7-3-3-6-7">C</text>
  <text
     x="480.41937"
     y="731.92743"
     font-family="'DejaVu Sans'"
     font-size="16px"
     text-align="end"
     text-anchor="end"
     style="font-style:normal;font-variant:normal;font-weight:normal;font-stretch:normal;font-size:10.6667px;font-family:'DejaVu Sans';-inkscape-font-specification:'DejaVu Sans, Normal';font-variant-ligatures:normal;font-variant-caps:normal;font-variant-numeric:normal;font-variant-east-asian:normal;text-align:end;text-anchor:end"
     id="text7886-3-6-5-4-8-5">o</text>
  <text
     x="488.23218"
     y="741.40723"
     font-family="'DejaVu Sans'"
     font-size="16px"
     text-align="end"
     text-anchor="end"
     style="font-variant-ligatures:normal;font-variant-caps:normal;font-variant-numeric:normal;font-feature-settings:normal"
     id="text7886-3-7-3-3-6-48">C</text>
  <text
     x="587.41791"
     y="731.53223"
     font-family="'DejaVu Sans'"
     font-size="16px"
     text-align="end"
     text-anchor="end"
     style="font-style:normal;font-variant:normal;font-weight:normal;font-stretch:normal;font-size:10.6667px;font-family:'DejaVu Sans';-inkscape-font-specification:'DejaVu Sans, Normal';font-variant-ligatures:normal;font-variant-caps:normal;font-variant-numeric:normal;font-variant-east-asian:normal;text-align:end;text-anchor:end"
     id="text7886-3-6-5-4-8-1">o</text>
  <text
     x="595.23071"
     y="741.01202"
     font-family="'DejaVu Sans'"
     font-size="16px"
     text-align="end"
     text-anchor="end"
     style="font-variant-ligatures:normal;font-variant-caps:normal;font-variant-numeric:normal;font-feature-settings:normal"
     id="text7886-3-7-3-3-6-28">C</text>
  <text
     x="490.13763"
     y="794.08575"
     font-family="'DejaVu Sans'"
     style="font-family:'DejaVu Sans';font-variant-ligatures:normal;font-variant-caps:normal;font-variant-numeric:normal;font-feature-settings:normal"
     id="text8286-3"><tspan
       font-size="60px"
       style="font-style:normal;font-variant:normal;font-weight:normal;font-stretch:normal;font-size:16px;font-family:'DejaVu Sans';-inkscape-font-specification:'DejaVu Sans, Normal';font-variant-ligatures:normal;font-variant-caps:normal;font-variant-numeric:normal;font-variant-east-asian:normal"
       id="tspan8282-6">$TIME</tspan></text>
</svg>
